<svg xmlns="http://www.w3.org/2000/svg" viewBox="0 0 1229.49 421.5">
<defs><style>.cls-1{fill:#fafafa;}</style>
</defs><g id="Capa_2" data-name="Capa 2">
<g id="Capa_1-2" data-name="Capa 1">
<path class="cls-1" d="M217,317c-23.5,0-37-23.5-37-54,0-17-6.5-27-11.5-33.5a21.75,21.75,0,0,0-3-3.5c0-.5-.5-1-1-1.5C150,203.5,140,201,130,201c-23,0-38.5,9.5-47,25.5A91.6,91.6,0,0,0,75.5,249C74,256,73,263.5,72,271c-2.5,21-3.5,43.5-33,43.5-20,0-28.5-9.5-33.5-24.5-2.5-8-4-17.5-5-28.5C0,251,0,240,0,230.5c0-38,3.5-76,3.5-114,0-18-2-36.5-2-55,0-33,13-61.5,37-61.5,14.5,0,22,8.5,30,30,4,10.5,7,22.5,11.5,33,2.84,7.1,4.6,13.32,8,20.14a56.15,56.15,0,0,0,5.59,9,29.24,29.24,0,0,0,6,5.86l3.4,2.52a22.7,22.7,0,0,0,4.57,2.61c9.29,4,13.51,4.36,19,4.36,20.5,0,34-10,42-24a111.27,111.27,0,0,0,8-20c2-6.5,3.5-13.5,5-20.5,4.5-19.5,7-41,31-41,22.5,0,34.5,16,40,46.5,3,15,4,31.5,4,47,0,16.5-.5,31.5-.5,42.5,0,30.5-.5,134.5-14,159.5C237.1,309.69,229.5,317,217,317Z"/>
<path class="cls-1" d="M398.06,223c6.19,37.47,60.23,37.32,67.05,0,7.06-38.67-9.45-97.14,21.28-110.56,47.52-20.75,60.5,40.33,58.21,73.18-.06,1-.1,1.94-.09,2.91,1.45,148.68-.53,133.86-139,145.9-1,.09-2,.14-3,.14-92.8-.58-84.14-123.76-76.1-197.86a33.42,33.42,0,0,1,11.78-22.26c35.23-29,63.63,55.39,59.55,100.07a31.86,31.86,0,0,0,.14,7C397.9,222,398,222.48,398.06,223Z"/><path class="cls-1" d="M958.7,279.33a26.44,26.44,0,0,1-.62,3.31c-13,49.52-46.46,42.88-61.08-7.64-7.27-22.45-11.11-46-17.89-67.84-2.39-8.44-7.17-12.33-14-14.46a26,26,0,0,0-12.22-1c-19.82,3.53-20.09,29.51-19.38,47.81,0,27.11-9.93,56.2-27,68.92a26.25,26.25,0,0,1-29.62,1c-24.76-15.63-32.28-41.3-38.53-79.31-3-20.86-34-21.18-37.43-.4C694,268.11,680.76,316,651,316c-32.38,1.92-37.65-43.47-38.5-70,.38-42-5.24-88.19,9.35-123.95a23.33,23.33,0,0,1,1.48-3c28.39-47.42,144.15-15,196.67-16,26,0,51-7,77-7C979.06,96.82,966,220.9,958.7,279.33Z"/><path class="cls-1" d="M1083.49,421.5c-16,0-41.5-2-41.5-22a28.61,28.61,0,0,1,4.58-16.36c.28-.43.57-.84.88-1.25a65.47,65.47,0,0,1,4.89-5.73c.43-.44.89-.86,1.36-1.26,2.7-2.3,5-4.6,7.79-6.9,15.5-13.5,30-28,30-54.5,0-17.5-4.5-35.5-11-53-6-17.5-14.5-35-22.5-52.5-16.5-36-31-67.5-31-95,0-13.19,2.18-19.14,11.14-24.62a19.82,19.82,0,0,1,10.36-2.88h0c13.5,0,20.5,8,31,24.5,5,8,10.5,17,17,24,7.5,8,18,14.5,32,14.5,21,0,38-17,53-35.5,2.64-3.52,5.29-6.66,7.59-9.74a20.54,20.54,0,0,1,2-2.36c2.53-2.52,4.78-4.71,7.4-6.9,5-4.5,9-5.5,12.5-5.5,12.5,0,18.5,6.5,18.5,24.5,0,48-51,226.5-78,266.5C1136.49,401.5,1107.49,421.5,1083.49,421.5Z"/></g></g></svg>